<?xml version="1.0" encoding="iso-8859-1"?>
<!-- Generator: Adobe Illustrator 19.0.0, SVG Export Plug-In . SVG Version: 6.00 Build 0)  -->
<svg xmlns="http://www.w3.org/2000/svg" xmlns:xlink="http://www.w3.org/1999/xlink" version="1.1" id="Capa_1" x="0px" y="0px" viewBox="0 0 512.001 512.001" style="enable-background:new 0 0 512.001 512.001;" xml:space="preserve" width="512px" height="512px">
<g>
	<g>
		<path d="M256,0.001C114.841,0.001,0,114.841,0,256s114.841,256,256,256s256.001-114.841,256.001-256S397.159,0.001,256,0.001z     M256,492C125.869,492,20,386.131,20,256S125.869,20,256,20s236.001,105.869,236.001,236S386.131,492,256,492z" fill="#d1d1d1"/>
	</g>
</g>
<g>
	<g>
		<path d="M176.661,98.58c-2.762-4.783-8.878-6.422-13.66-3.66c-18.778,10.84-35.376,24.748-49.332,41.338    c-3.556,4.226-3.013,10.534,1.214,14.09c1.875,1.577,4.16,2.348,6.433,2.348c2.849,0,5.679-1.211,7.657-3.563    c12.456-14.805,27.268-27.218,44.027-36.893C177.783,109.479,179.422,103.363,176.661,98.58z" fill="#d1d1d1"/>
	</g>
</g>
<g>
	<g>
		<path d="M397.118,361.653c-4.227-3.555-10.535-3.013-14.09,1.215c-12.456,14.805-27.27,27.219-44.028,36.895    c-4.783,2.762-6.421,8.878-3.66,13.66c1.853,3.209,5.213,5.002,8.669,5.002c1.696,0,3.417-0.433,4.991-1.342    c18.777-10.842,35.374-24.75,49.331-41.34C401.887,371.517,401.344,365.209,397.118,361.653z" fill="#d1d1d1"/>
	</g>
</g>
<g>
	<g>
		<path d="M424.015,112.6c-0.615-1.021-1.385-1.891-2.263-2.604C381.225,64.043,321.944,35,256,35    c-14.048,0-27.789,1.333-41.116,3.852c-0.495,0.055-0.976,0.152-1.446,0.277C136.107,54.278,73.102,109.88,47.434,182.921    c-0.221,0.488-0.389,0.988-0.526,1.492C39.195,206.875,35,230.956,35,256c0,54.687,19.976,104.789,53,143.418    c0.605,1,1.361,1.852,2.22,2.554C130.748,447.945,190.04,477,256,477c14.048,0,27.789-1.333,41.116-3.852    c0.495-0.055,0.976-0.152,1.445-0.277c77.332-15.148,140.337-70.751,166.005-143.79c0.222-0.487,0.389-0.986,0.526-1.489    c7.713-22.463,11.909-46.546,11.909-71.592C477.001,201.322,457.031,151.226,424.015,112.6z M226,57.241    c9.79-1.472,19.807-2.24,30-2.24C312.156,55,362.998,78.159,399.503,115.415L226,215.587V57.241z M206,61.297v200.477    L68.875,182.606C92.285,123.13,143.269,77.416,206,61.297z M55,256c0-18.716,2.581-36.841,7.389-54.044L236,302.188    L98.962,381.307C71.467,346.921,55,303.35,55,256z M286,454.76c-9.79,1.472-19.807,2.24-30,2.24    c-56.156,0-106.998-23.158-143.503-60.414L286,296.415V454.76z M286,273.321l-30,17.32l-30-17.32V238.68l30-17.32l30,17.32    V273.321z M306,450.704V250.227l137.125,79.17C419.715,388.874,368.73,434.586,306,450.704z M449.611,310.047L301,224.247    l-25-14.434l137.039-79.119c27.495,34.387,43.962,77.957,43.962,125.307C457.001,274.718,454.42,292.843,449.611,310.047z" fill="#d1d1d1"/>
	</g>
</g>
<g>
	<g>
		<path d="M108.929,158.728c-4.784-2.759-10.899-1.119-13.659,3.665l-0.335,0.578c-2.778,4.775-1.159,10.897,3.615,13.673    c1.582,0.921,3.312,1.358,5.019,1.358c3.444,0,6.796-1.782,8.653-4.974l0.372-0.641    C115.354,167.604,113.713,161.488,108.929,158.728z" fill="#d1d1d1"/>
	</g>
</g>
<g>
	<g>
		<path d="M413.418,335.338c-4.784-2.76-10.898-1.119-13.659,3.665l-0.353,0.609c-2.76,4.783-1.119,10.899,3.665,13.659    c1.574,0.908,3.292,1.34,4.988,1.34c3.457,0,6.819-1.795,8.671-5.005l0.353-0.609    C419.843,344.214,418.202,338.098,413.418,335.338z" fill="#d1d1d1"/>
	</g>
</g>
<g>
</g>
<g>
</g>
<g>
</g>
<g>
</g>
<g>
</g>
<g>
</g>
<g>
</g>
<g>
</g>
<g>
</g>
<g>
</g>
<g>
</g>
<g>
</g>
<g>
</g>
<g>
</g>
<g>
</g>
</svg>
